GRF
version=1
nRows=30
nColumns=19
inDegrees=no
endheader
time	ground_force_vx	ground_force_vy	ground_force_vz	ground_force_px	ground_force_py	ground_force_pz	ground_torque_x	ground_torque_y	ground_torque_z	1_ground_force_vx	1_ground_force_vy	1_ground_force_vz	1_ground_force_px	1_ground_force_py	1_ground_force_pz	1_ground_torque_x	1_ground_torque_y	1_ground_torque_z
      1.75000000	    -17.44837974	    334.18326850	     44.28632881	      0.15547700	     -0.00000000	     -0.08353851	     -0.00000000	     -1.45993559	      0.00000000	     30.53648566	    407.12550131	    -41.66246484	     -0.13676997	      0.00000000	      0.19175378	      0.00000000	      1.34749212	     -0.00000000
      1.75100000	    -17.15235760	    330.54518426	     44.26776294	      0.15530426	     -0.00000000	     -0.08389505	     -0.00000000	     -1.44969980	      0.00000000	     30.68498292	    407.86973419	    -41.65120516	     -0.13683894	      0.00000000	      0.19153943	      0.00000000	      1.35228896	     -0.00000000
      1.75200000	    -16.85514426	    326.90085405	     44.24473672	      0.15512966	     -0.00000000	     -0.08425730	     -0.00000000	     -1.43924524	      0.00000000	     30.84161629	    408.63920981	    -41.64024638	     -0.13690677	      0.00000000	      0.19132658	      0.00000000	      1.35533357	     -0.00000000
      1.75300000	    -16.55668733	    323.25048637	     44.21715845	      0.15495314	     -0.00000000	     -0.08462610	     -0.00000000	     -1.42862443	      0.00000000	     31.00637173	    409.43466548	    -41.62931779	     -0.13697346	      0.00000000	      0.19111448	      0.00000000	      1.35671307	     -0.00000000
      1.75400000	    -16.25694926	    319.59429039	     44.18493454	      0.15477464	     -0.00000000	     -0.08500227	     -0.00000000	     -1.41789132	      0.00000000	     31.17920010	    410.25681538	    -41.61814566	     -0.13703901	      0.00000000	      0.19090230	      0.00000000	      1.35652309	     -0.00000000
      1.75500000	    -15.95590713	    315.93247717	     44.14796684	      0.15459410	     -0.00000000	     -0.08538657	     -0.00000000	     -1.40710072	      0.00000000	     31.36001795	    411.10635201	    -41.60645578	     -0.13710339	      0.00000000	      0.19068922	      0.00000000	      1.35486674	     -0.00000000
      1.75600000	    -15.65355247	    312.26526087	     44.10615013	      0.15441145	     -0.00000000	     -0.08577972	     -0.00000000	     -1.39630762	      0.00000000	     31.54870864	    411.98394765	    -41.59397588	     -0.13716659	      0.00000000	      0.19047439	      0.00000000	      1.35185347	     -0.00000000
      1.75700000	    -15.34989093	    308.59286008	     44.05936952	      0.15422664	     -0.00000000	     -0.08618237	     -0.00000000	     -1.38556652	      0.00000000	     31.74512363	    412.89025588	    -41.58043791	     -0.13722859	      0.00000000	      0.19025696	      0.00000000	      1.34759798	     -0.00000000
      1.75800000	    -15.04494191	    304.91549917	     44.00749811	      0.15403962	     -0.00000000	     -0.08659509	     -0.00000000	     -1.37493072	      0.00000000	     31.94908397	    413.82591308	    -41.56558028	     -0.13728938	      0.00000000	      0.19003608	      0.00000000	      1.34221910	     -0.00000000
      1.75900000	    -14.73873814	    301.23340963	     43.95039466	      0.15385035	     -0.00000000	     -0.08701838	     -0.00000000	     -1.36445149	      0.00000000	     32.16038201	    414.79153988	    -41.54914982	     -0.13734892	      0.00000000	      0.18981090	      0.00000000	      1.33583869	     -0.00000000
      1.76000000	    -14.43132519	    297.54683145	     43.88790157	      0.15365879	     -0.00000000	     -0.08745263	     -0.00000000	     -1.35417739	      0.00000000	     32.37878322	    415.78774249	    -41.53090377	     -0.13740720	      0.00000000	      0.18958060	      0.00000000	      1.32858060	     -0.00000000
      1.76100000	    -14.12276091	    293.85601443	     43.81984298	      0.15346492	     -0.00000000	     -0.08789815	     -0.00000000	     -1.34415347	      0.00000000	     32.60402828	    416.81511391	    -41.51061151	     -0.13746420	      0.00000000	      0.18934435	      0.00000000	      1.32056960	     -0.00000000
      1.76200000	    -13.81311488	    290.16121946	     43.74602321	      0.15326872	     -0.00000000	     -0.08835513	     -0.00000000	     -1.33442051	      0.00000000	     32.83583516	    417.87423497	    -41.48805618	     -0.13751990	      0.00000000	      0.18910137	      0.00000000	      1.31193035	     -0.00000000
      1.76300000	    -13.50246777	    286.46271973	     43.66622541	      0.15307020	     -0.00000000	     -0.08882368	     -0.00000000	     -1.32501436	      0.00000000	     33.07390148	    418.96567513	    -41.46303616	     -0.13757428	      0.00000000	      0.18885092	      0.00000000	      1.30278644	     -0.00000000
      1.76400000	    -13.19091067	    282.76080185	     43.58021058	      0.15286936	     -0.00000000	     -0.08930375	     -0.00000000	     -1.31596527	      0.00000000	     33.31790682	    420.08999312	    -41.43536631	     -0.13762732	      0.00000000	      0.18859228	      0.00000000	      1.29325945	     -0.00000000
      1.76500000	    -12.87854440	    279.05576683	     43.48771692	      0.15266623	     -0.00000000	     -0.08979523	     -0.00000000	     -1.30729730	      0.00000000	     33.56751522	    421.24773723	    -41.40487917	     -0.13767900	      0.00000000	      0.18832477	      0.00000000	      1.28346803	     -0.00000000
      1.76600000	    -12.56547884	    275.34793096	     43.38845949	      0.15246088	     -0.00000000	     -0.09029784	     -0.00000000	     -1.29902781	      0.00000000	     33.82237766	    422.43944536	    -41.37142587	     -0.13772932	      0.00000000	      0.18804779	      0.00000000	      1.27352702	     -0.00000000
      1.76700000	    -12.25183216	    271.63762662	     43.28213023	      0.15225337	     -0.00000000	     -0.09081123	     -0.00000000	     -1.29116703	      0.00000000	     34.08213463	    423.66564476	    -41.33487697	     -0.13777825	      0.00000000	      0.18776076	      0.00000000	      1.26354668	     -0.00000000
      1.76800000	    -11.93773010	    267.92520283	     43.16839843	      0.15204379	     -0.00000000	     -0.09133492	     -0.00000000	     -1.28371775	      0.00000000	     34.34641866	    424.92685150	    -41.29512305	     -0.13782580	      0.00000000	      0.18746318	      0.00000000	      1.25363189	     -0.00000000
      1.76900000	    -11.62330528	    264.21102575	     43.04691149	      0.15183228	     -0.00000000	     -0.09186831	     -0.00000000	     -1.27667509	      0.00000000	     34.61485689	    426.22356961	    -41.25207522	     -0.13787196	      0.00000000	      0.18715460	      0.00000000	      1.24388142	     -0.00000000
      1.77000000	    -11.30869645	    260.49547904	     42.91729606	      0.15161899	     -0.00000000	     -0.09241071	     -0.00000000	     -1.27002640	      0.00000000	     34.88707357	    427.55628990	    -41.20566536	     -0.13791673	      0.00000000	      0.18683465	      0.00000000	      1.23438730	     -0.00000000
      1.77100000	    -10.99404778	    256.77896404	     42.77915953	      0.15140409	     -0.00000000	     -0.09296134	     -0.00000000	     -1.26375127	      0.00000000	     35.16269250	    428.92548851	    -41.15584628	     -0.13796010	      0.00000000	      0.18650300	      0.00000000	      1.22523417	     -0.00000000
      1.77200000	    -10.67950821	    253.06189987	     42.63209197	      0.15118783	     -0.00000000	     -0.09351931	     -0.00000000	     -1.25782163	      0.00000000	     35.44133948	    430.33162527	    -41.10259166	     -0.13800209	      0.00000000	      0.18615943	      0.00000000	      1.21649877	     -0.00000000
      1.77300000	    -10.36523080	    249.34472340	     42.47566822	      0.15097044	     -0.00000000	     -0.09408368	     -0.00000000	     -1.25220199	      0.00000000	     35.72264454	    431.77514166	    -41.04589586	     -0.13804269	      0.00000000	      0.18580376	      0.00000000	      1.20824945	     -0.00000000
      1.77400000	    -10.05137213	    245.62788915	     42.30945045	      0.15075224	     -0.00000000	     -0.09465343	     -0.00000000	     -1.24684978	      0.00000000	     36.00624420	    433.25645871	    -40.98577351	     -0.13808192	      0.00000000	      0.18543589	      0.00000000	      1.20054575	     -0.00000000
      1.77500000	     -9.73809172	    241.91186905	     42.13299090	      0.15053357	     -0.00000000	     -0.09522748	     -0.00000000	     -1.24171578	      0.00000000	     36.29178346	    434.77597463	    -40.92225900	     -0.13811978	      0.00000000	      0.18505580	      0.00000000	      1.19343808	     -0.00000000
      1.77600000	     -9.42555155	    238.19715223	     41.94583495	      0.15031482	     -0.00000000	     -0.09580472	     -0.00000000	     -1.23674464	      0.00000000	     36.57891779	    436.33406235	    -40.85540578	     -0.13815629	      0.00000000	      0.18466354	      0.00000000	      1.18696750	     -0.00000000
      1.77700000	     -9.11391562	    234.48424472	     41.74752431	      0.15009645	     -0.00000000	     -0.09638402	     -0.00000000	     -1.23187547	      0.00000000	     36.86731489	    437.93106690	    -40.78528552	     -0.13819145	      0.00000000	      0.18425923	      0.00000000	      1.18116553	     -0.00000000
      1.77800000	     -8.80334955	    230.77366916	     41.53760052	      0.14987895	     -0.00000000	     -0.09696422	     -0.00000000	     -1.22704253	      0.00000000	     37.15665628	    439.56730277	    -40.71198708	     -0.13822528	      0.00000000	      0.18384305	      0.00000000	      1.17605414	     -0.00000000
      1.77900000	     -8.49402028	    227.06596448	     41.31560851	      0.14966289	     -0.00000000	     -0.09754420	     -0.00000000	     -1.22217592	      0.00000000	     37.44663878	    441.24305128	    -40.63561540	     -0.13825779	      0.00000000	      0.18341526	      0.00000000	      1.17164574	     -0.00000000
